<svg xmlns="http://www.w3.org/2000/svg" width="53" height="45" viewBox="0 0 53 45">
  <g id="Hail_Icon" data-name="Hail Icon" transform="translate(-117.5 -341.5)">
    <path id="椭圆_3_拷贝_4" data-name="椭圆 3 拷贝 4" d="M160,378c1.588,0-2,.449-2-1.5,0-2.076,3.333-1.5,2-1.5a7,7,0,0,0,1.939-13.722,18.052,18.052,0,0,1-1.133,5.125l-.1-.052a1.473,1.473,0,0,1-1.2.649,1.5,1.5,0,0,1-1.5-1.5,1.465,1.465,0,0,1,.181-.678,15.117,15.117,0,0,0,.771-3.735h-.007c.026-.361.055-.721.055-1.088,0-.413-.029-.82-.062-1.225q-.05-.533-.13-1.056a14.991,14.991,0,0,0-29.8,1.813c.025-.808-.064.481-.1.411a1.472,1.472,0,0,1-.923.958c0,.033.012.066.012.1a7,7,0,0,0,0,14c-1.333,0,2-.575,2,1.5,0,2-3.333,1.5-2,1.5a10,10,0,0,1-1.909-19.813,18,18,0,0,1,35.817,0A10,10,0,0,1,160,378Z" fill="#eee" stroke="#eee" stroke-width="1"/>
    <path id="椭圆_4" data-name="椭圆 4" d="M150,384a2,2,0,1,1,2,2A2,2,0,0,1,150,384Zm-16,0a2,2,0,1,1,2,2A2,2,0,0,1,134,384Zm8-5a2,2,0,1,1,2,2A2,2,0,0,1,142,379Zm8-5a2,2,0,1,1,2,2A2,2,0,0,1,150,374Zm-16,0a2,2,0,1,1,2,2A2,2,0,0,1,134,374Z" fill="#eee" stroke="#eee" stroke-width="1"/>
  </g>
</svg>
