<svg xmlns="http://www.w3.org/2000/svg" width="52.974" height="27" viewBox="0 0 52.974 27">
  <g id="NA_Icon" data-name="NA Icon" transform="translate(-458.5 -484.5)">
    <path id="圆角矩形_5" data-name="圆角矩形 5" d="M474.02,510.922a1.494,1.494,0,0,1-.85-.681L462,491.864V509.5a1.5,1.5,0,1,1-3,0V486.544q0-.047,0-.094a1.5,1.5,0,0,1,2.843-.617L473,504.187V486.5a1.5,1.5,0,1,1,3,0v23a1.5,1.5,0,0,1-1.98,1.422Zm34.15-.681L506.006,504h-9.012l-2.164,6.241a1.5,1.5,0,1,1-2.6-1.5l7.783-22.446a1.5,1.5,0,0,1,.33-.743l0,0,.009-.011a1.494,1.494,0,0,1,.712-.466h.006a1.5,1.5,0,0,1,.912.02l.012,0h0a1.5,1.5,0,0,1,.556.349l.012.012,0,0a1.5,1.5,0,0,1,.415.837l7.783,22.446a1.5,1.5,0,1,1-2.6,1.5Zm-3.2-9.24-3.466-9.995L498.034,501Zm-23.185,9.789a1.5,1.5,0,0,1-.549-2.049l7.97-22.981a1.5,1.5,0,0,1,2.6,1.5l-7.969,22.981a1.5,1.5,0,0,1-2.049.549Z" fill="#eee" stroke="#eee" stroke-width="1"/>
  </g>
</svg>
