<svg xmlns="http://www.w3.org/2000/svg" width="83.732" height="83.732" viewBox="0 0 83.732 83.732">
  <g id="Icon_feather-wifi-off" data-name="Icon feather-wifi-off" transform="translate(2.036 2.036)">
    <path id="Path_12" data-name="Path 12" d="M1.5,1.5,78.161,78.161" transform="translate(0 0)" fill="none" stroke="#eee" stroke-linecap="round" stroke-linejoin="round" stroke-width="5"/>
    <path id="Path_13" data-name="Path 13" d="M25.08,16.59a38.121,38.121,0,0,1,7.945,5.192" transform="translate(31.198 19.965)" fill="none" stroke="#eee" stroke-linecap="round" stroke-linejoin="round" stroke-width="5"/>
    <path id="Path_14" data-name="Path 14" d="M7.5,23.568A38.121,38.121,0,0,1,25.515,15.24" transform="translate(7.938 18.179)" fill="none" stroke="#eee" stroke-linecap="round" stroke-linejoin="round" stroke-width="5"/>
    <path id="Path_15" data-name="Path 15" d="M16.065,7.678A55.753,55.753,0,0,1,57.427,21.442" transform="translate(19.27 7.935)" fill="none" stroke="#eee" stroke-linecap="round" stroke-linejoin="round" stroke-width="5"/>
    <path id="Path_16" data-name="Path 16" d="M2.13,19.216A55.44,55.44,0,0,1,18.508,9.18" transform="translate(0.834 10.161)" fill="none" stroke="#eee" stroke-linecap="round" stroke-linejoin="round" stroke-width="5"/>
    <path id="Path_17" data-name="Path 17" d="M12.8,26.365a20.907,20.907,0,0,1,24.218,0" transform="translate(14.944 27.787)" fill="none" stroke="#eee" stroke-linecap="round" stroke-linejoin="round" stroke-width="5"/>
    <path id="Path_18" data-name="Path 18" d="M18,30h0" transform="translate(21.83 37.707)" fill="none" stroke="#eee" stroke-linecap="round" stroke-linejoin="round" stroke-width="5"/>
  </g>
</svg>
