<svg xmlns="http://www.w3.org/2000/svg" width="57.239" height="57.212" viewBox="0 0 57.239 57.212">
  <g id="Sunny_Icon" data-name="Sunny Icon" transform="translate(-116.88 -81.976)">
    <path id="椭圆_1" data-name="椭圆 1" d="M27.5,44.239c5.455,0,0,10.761,0,10.761S22.045,44.239,27.5,44.239Zm11.836-4.9c3.8-3.8,7.609,7.609,7.609,7.609S35.539,43.135,39.336,39.336Zm-23.673,0c3.858,3.858-7.609,7.609-7.609,7.609S11.807,35.48,15.664,39.336ZM18.2,36.8a13.152,13.152,0,1,1,9.3,3.852A13.061,13.061,0,0,1,18.2,36.8Zm-.265-9.3A9.565,9.565,0,1,0,27.5,17.935,9.577,9.577,0,0,0,17.935,27.5Zm26.3,0c0-5.372,10.761,0,10.761,0s-4.783,2.387-7.971,2.387C45.435,29.887,44.239,29.291,44.239,27.5ZM0,27.5s10.761-5.372,10.761,0c0,1.79-1.2,2.387-2.79,2.387C4.783,29.888,0,27.5,0,27.5ZM39.336,15.664c-3.858-3.857,7.609-7.609,7.609-7.609s-2.749,8.4-5.96,8.4A2.33,2.33,0,0,1,39.336,15.664ZM8.055,8.055s11.408,3.812,7.609,7.609a2.28,2.28,0,0,1-1.616.775C10.856,16.439,8.055,8.055,8.055,8.055ZM27.5,0s5.455,10.761,0,10.761S27.5,0,27.5,0Z" transform="translate(118 83.081)" fill="#eee" stroke="#eee" stroke-width="1"/>
  </g>
</svg>
