<svg xmlns="http://www.w3.org/2000/svg" width="53" height="52" viewBox="0 0 53 52">
  <g id="Thunderstorm_Icon" data-name="Thunderstorm Icon" transform="translate(-458.5 -211.5)">
    <path id="椭圆_3_拷贝_5" data-name="椭圆 3 拷贝 5" d="M486,261a2,2,0,1,1,2,2A2,2,0,0,1,486,261Zm-2-12h-6l11-11-3,9h6l-11,11Zm-12,6a2,2,0,1,1,2,2A2,2,0,0,1,472,255Zm22-1a2,2,0,1,1,2,2A2,2,0,0,1,494,254Z" fill="#eee" stroke="#eee" stroke-width="1"/>
    <path id="椭圆_3_拷贝_3" data-name="椭圆 3 拷贝 3" d="M501.668,247.966a1.443,1.443,0,0,1-.168.034h-4a1.5,1.5,0,0,1,0-3H501a7,7,0,0,0,1.939-13.722,18.057,18.057,0,0,1-1.133,5.125l-.1-.052a1.473,1.473,0,0,1-1.2.649,1.5,1.5,0,0,1-1.5-1.5,1.464,1.464,0,0,1,.181-.678,15.123,15.123,0,0,0,.771-3.735h-.007c.026-.361.055-.721.055-1.088,0-.413-.029-.82-.062-1.225q-.05-.532-.13-1.056a14.991,14.991,0,0,0-29.8,1.813c.025-.808-.064.48-.1.411a1.471,1.471,0,0,1-.923.958c0,.033.012.066.012.1a7,7,0,0,0,0,14h3.5a1.5,1.5,0,0,1,0,3h-4c0-.01,0-.015,0-.025a9.991,9.991,0,0,1-1.409-19.788,18,18,0,0,1,35.817,0,9.992,9.992,0,0,1-1.241,19.78Z" fill="#eee" stroke="#eee" stroke-width="1"/>
  </g>
</svg>
