<svg xmlns="http://www.w3.org/2000/svg" width="376.372" height="1786.719" viewBox="0 0 376.372 1786.719">
  <g id="Drops" transform="translate(-31.314 23.966)">
    <path id="Path_6" data-name="Path 6" d="M2.843,0,5.686,100.454s-.334,3.75-2.9,3.463S0,100.454,0,100.454Z" transform="translate(34.314 -20.966)" fill="#eee" opacity="0.3"/>
    <path id="Path_7" data-name="Path 7" d="M2.843,0,5.686,39.462s-.334,1.473-2.9,1.361S0,39.462,0,39.462Z" transform="translate(78.314 82.966)" fill="#eee" opacity="0.3"/>
    <path id="Path_25" data-name="Path 25" d="M2.843,0,5.686,39.462s-.334,1.473-2.9,1.361S0,39.462,0,39.462Z" transform="translate(59 543.966)" fill="#eee" opacity="0.3"/>
    <path id="Path_30" data-name="Path 30" d="M2.843,0,5.686,39.462s-.334,1.473-2.9,1.361S0,39.462,0,39.462Z" transform="translate(356 872.796)" fill="#eee" opacity="0.3"/>
    <path id="Path_8" data-name="Path 8" d="M2.843,0,5.686,39.462s-.334,1.473-2.9,1.361S0,39.462,0,39.462Z" transform="translate(53.314 207.631)" fill="#eee" opacity="0.3"/>
    <path id="Path_24" data-name="Path 24" d="M2.843,0,5.686,39.462s-.334,1.473-2.9,1.361S0,39.462,0,39.462Z" transform="translate(250.314 454.459)" fill="#eee" opacity="0.3"/>
    <path id="Path_27" data-name="Path 27" d="M2.843,0,5.686,39.462s-.334,1.473-2.9,1.361S0,39.462,0,39.462Z" transform="translate(171.314 666.459)" fill="#eee" opacity="0.3"/>
    <path id="Path_31" data-name="Path 31" d="M2.843,0,5.686,39.462s-.334,1.473-2.9,1.361S0,39.462,0,39.462Z" transform="translate(189.314 933.459)" fill="#eee" opacity="0.3"/>
    <path id="Path_33" data-name="Path 33" d="M2.843,0,5.686,39.462s-.334,1.473-2.9,1.361S0,39.462,0,39.462Z" transform="translate(302.314 1030.923)" fill="#eee" opacity="0.3"/>
    <path id="Path_37" data-name="Path 37" d="M2.843,0,5.686,39.462s-.334,1.473-2.9,1.361S0,39.462,0,39.462Z" transform="translate(138 1367.923)" fill="#eee" opacity="0.3"/>
    <path id="Path_38" data-name="Path 38" d="M2.843,0,5.686,39.462s-.334,1.473-2.9,1.361S0,39.462,0,39.462Z" transform="translate(272.157 1399.923)" fill="#eee" opacity="0.3"/>
    <path id="Path_42" data-name="Path 42" d="M2.843,0,5.686,39.462s-.334,1.473-2.9,1.361S0,39.462,0,39.462Z" transform="translate(310.157 1718.923)" fill="#eee" opacity="0.3"/>
    <path id="Path_9" data-name="Path 9" d="M2.843,0,5.686,98.821s-.334,3.689-2.9,3.407S0,98.821,0,98.821Z" transform="translate(295 293.056)" fill="#eee" opacity="0.3"/>
    <path id="Path_26" data-name="Path 26" d="M2.843,0,5.686,98.821s-.334,3.689-2.9,3.407S0,98.821,0,98.821Z" transform="translate(373 554.056)" fill="#eee" opacity="0.3"/>
    <path id="Path_10" data-name="Path 10" d="M2.843,0,5.686,98.821s-.334,3.689-2.9,3.407S0,98.821,0,98.821Z" transform="translate(355 147.216)" fill="#eee" opacity="0.3"/>
    <path id="Path_28" data-name="Path 28" d="M2.843,0,5.686,98.821s-.334,3.689-2.9,3.407S0,98.821,0,98.821Z" transform="translate(275 757.216)" fill="#eee" opacity="0.3"/>
    <path id="Path_32" data-name="Path 32" d="M2.843,0,5.686,98.821s-.334,3.689-2.9,3.407S0,98.821,0,98.821Z" transform="translate(138 1000.216)" fill="#eee" opacity="0.3"/>
    <path id="Path_34" data-name="Path 34" d="M2.843,0,5.686,98.821s-.334,3.689-2.9,3.407S0,98.821,0,98.821Z" transform="translate(216 1102.459)" fill="#eee" opacity="0.3"/>
    <path id="Path_35" data-name="Path 35" d="M2.843,0,5.686,98.821s-.334,3.689-2.9,3.407S0,98.821,0,98.821Z" transform="translate(70 1219.459)" fill="#eee" opacity="0.3"/>
    <path id="Path_36" data-name="Path 36" d="M2.843,0,5.686,98.821s-.334,3.689-2.9,3.407S0,98.821,0,98.821Z" transform="translate(336 1270.581)" fill="#eee" opacity="0.3"/>
    <path id="Path_39" data-name="Path 39" d="M2.843,0,5.686,98.821s-.334,3.689-2.9,3.407S0,98.821,0,98.821Z" transform="translate(95 1476.581)" fill="#eee" opacity="0.3"/>
    <path id="Path_40" data-name="Path 40" d="M2.843,0,5.686,98.821s-.334,3.689-2.9,3.407S0,98.821,0,98.821Z" transform="translate(238 1573.581)" fill="#eee" opacity="0.3"/>
    <path id="Path_41" data-name="Path 41" d="M2.843,0,5.686,98.821s-.334,3.689-2.9,3.407S0,98.821,0,98.821Z" transform="translate(160 1650.581)" fill="#eee" opacity="0.3"/>
    <path id="Path_23" data-name="Path 23" d="M2.843,0,5.686,98.821s-.334,3.689-2.9,3.407S0,98.821,0,98.821Z" transform="translate(147 352.216)" fill="#eee" opacity="0.3"/>
    <path id="Path_11" data-name="Path 11" d="M2.843,0,5.686,98.821s-.334,3.689-2.9,3.407S0,98.821,0,98.821Z" transform="translate(399 72.674)" fill="#eee" opacity="0.3"/>
    <path id="Path_29" data-name="Path 29" d="M2.843,0,5.686,98.821s-.334,3.689-2.9,3.407S0,98.821,0,98.821Z" transform="translate(93 821.674)" fill="#eee" opacity="0.3"/>
  </g>
</svg>
